<svg id="visual" viewBox="0 0 900 600" width="900" height="600" xmlns="http://www.w3.org/2000/svg" xmlns:xlink="http://www.w3.org/1999/xlink" version="1.1"><path d="M0 61L13.7 60C27.3 59 54.7 57 82 58C109.3 59 136.7 63 163.8 64C191 65 218 63 245.2 65C272.3 67 299.7 73 327 71C354.3 69 381.7 59 409 55C436.3 51 463.7 53 491 54C518.3 55 545.7 55 573 54C600.3 53 627.7 51 654.8 51C682 51 709 53 736.2 58C763.3 63 790.7 71 818 74C845.3 77 872.7 75 886.3 74L900 73L900 0L886.3 0C872.7 0 845.3 0 818 0C790.7 0 763.3 0 736.2 0C709 0 682 0 654.8 0C627.7 0 600.3 0 573 0C545.7 0 518.3 0 491 0C463.7 0 436.3 0 409 0C381.7 0 354.3 0 327 0C299.7 0 272.3 0 245.2 0C218 0 191 0 163.8 0C136.7 0 109.3 0 82 0C54.7 0 27.3 0 13.7 0L0 0Z" fill="#043678"></path><path d="M0 133L13.7 135C27.3 137 54.7 141 82 146C109.3 151 136.7 157 163.8 153C191 149 218 135 245.2 138C272.3 141 299.7 161 327 161C354.3 161 381.7 141 409 137C436.3 133 463.7 145 491 147C518.3 149 545.7 141 573 134C600.3 127 627.7 121 654.8 125C682 129 709 143 736.2 149C763.3 155 790.7 153 818 151C845.3 149 872.7 147 886.3 146L900 145L900 71L886.3 72C872.7 73 845.3 75 818 72C790.7 69 763.3 61 736.2 56C709 51 682 49 654.8 49C627.7 49 600.3 51 573 52C545.7 53 518.3 53 491 52C463.7 51 436.3 49 409 53C381.7 57 354.3 67 327 69C299.7 71 272.3 65 245.2 63C218 61 191 63 163.8 62C136.7 61 109.3 57 82 56C54.7 55 27.3 57 13.7 58L0 59Z" fill="#01275a"></path><path d="M0 271L13.7 270C27.3 269 54.7 267 82 268C109.3 269 136.7 273 163.8 276C191 279 218 281 245.2 300C272.3 319 299.7 355 327 360C354.3 365 381.7 339 409 328C436.3 317 463.7 321 491 325C518.3 329 545.7 333 573 337C600.3 341 627.7 345 654.8 344C682 343 709 337 736.2 325C763.3 313 790.7 295 818 282C845.3 269 872.7 261 886.3 257L900 253L900 143L886.3 144C872.7 145 845.3 147 818 149C790.7 151 763.3 153 736.2 147C709 141 682 127 654.8 123C627.7 119 600.3 125 573 132C545.7 139 518.3 147 491 145C463.7 143 436.3 131 409 135C381.7 139 354.3 159 327 159C299.7 159 272.3 139 245.2 136C218 133 191 147 163.8 151C136.7 155 109.3 149 82 144C54.7 139 27.3 135 13.7 133L0 131Z" fill="#00183d"></path><path d="M0 349L13.7 353C27.3 357 54.7 365 82 374C109.3 383 136.7 393 163.8 393C191 393 218 383 245.2 395C272.3 407 299.7 441 327 456C354.3 471 381.7 467 409 465C436.3 463 463.7 463 491 465C518.3 467 545.7 471 573 470C600.3 469 627.7 463 654.8 461C682 459 709 461 736.2 448C763.3 435 790.7 407 818 394C845.3 381 872.7 383 886.3 384L900 385L900 251L886.3 255C872.7 259 845.3 267 818 280C790.7 293 763.3 311 736.2 323C709 335 682 341 654.8 342C627.7 343 600.3 339 573 335C545.7 331 518.3 327 491 323C463.7 319 436.3 315 409 326C381.7 337 354.3 363 327 358C299.7 353 272.3 317 245.2 298C218 279 191 277 163.8 274C136.7 271 109.3 267 82 266C54.7 265 27.3 267 13.7 268L0 269Z" fill="#001636"></path><path d="M0 601L13.7 601C27.3 601 54.7 601 82 601C109.3 601 136.7 601 163.8 601C191 601 218 601 245.2 601C272.3 601 299.7 601 327 601C354.3 601 381.7 601 409 601C436.3 601 463.7 601 491 601C518.3 601 545.7 601 573 601C600.3 601 627.7 601 654.8 601C682 601 709 601 736.2 601C763.3 601 790.7 601 818 601C845.3 601 872.7 601 886.3 601L900 601L900 383L886.3 382C872.7 381 845.3 379 818 392C790.7 405 763.3 433 736.2 446C709 459 682 457 654.8 459C627.7 461 600.3 467 573 468C545.7 469 518.3 465 491 463C463.7 461 436.3 461 409 463C381.7 465 354.3 469 327 454C299.7 439 272.3 405 245.2 393C218 381 191 391 163.8 391C136.7 391 109.3 381 82 372C54.7 363 27.3 355 13.7 351L0 347Z" fill="#01142e"></path></svg>